<?xml version="1.0" encoding="UTF-8"?>
<svg xmlns="http://www.w3.org/2000/svg" width="228" height="67" viewBox="0 0 228 67" fill="none">
  <rect x="10.7085" y="15.1865" width="34.8023" height="35.7333" rx="8" fill="white"></rect>
  <path fill-rule="evenodd" clip-rule="evenodd" d="M40.3619 37.3175C40.3619 35.0486 39.2845 32.8718 37.7041 31.3261C36.1547 29.8105 34.0389 28.8075 31.6608 28.8075H22.9825V39.283C22.9825 41.3476 24.014 43.2219 25.5742 44.6004C27.2138 46.049 29.4372 46.9505 31.6608 46.9505C34.5004 46.8885 36.5283 45.8302 37.9077 44.3033C39.6545 42.3697 40.3619 39.684 40.3619 37.3179V37.3175ZM14.0638 15.1436H16.6444V37.3175C16.4275 43.3398 19.2472 47.9458 24.0951 51.1554H14.0638C12.1281 51.1554 10.5444 49.5286 10.5444 47.5401V18.7589C10.5444 16.7707 12.1284 15.1439 14.0638 15.1439V15.1436ZM18.1909 15.1436H42.1778C44.1135 15.1436 45.6971 16.7703 45.6971 18.7585V32.109C43.4204 26.2867 37.7237 22.6646 31.6608 22.6646H22.9825V20.7474C22.9825 19.7243 22.3897 18.2845 21.3106 17.0949C20.5188 16.2219 19.4648 15.4836 18.1909 15.1436ZM45.6971 43.2011V47.5401C45.6971 49.5286 44.1135 51.1554 42.1778 51.1554H39.1193C42.2247 49.4087 44.5005 46.6272 45.6971 43.2015V43.2011Z" fill="url(#paint0_radial_14220_14053)"></path>
  <path d="M106.773 51.3137C104.66 51.3137 103.386 49.9723 103.386 47.768C103.386 45.6572 104.67 44.2324 106.773 44.2324C108.885 44.2324 110.149 45.6153 110.149 47.6742C110.149 49.8474 108.864 51.3137 106.773 51.3137ZM106.771 50.8993C108.279 50.8993 109.206 49.6048 109.206 47.6859C109.206 45.8679 108.295 44.6468 106.771 44.6468C105.255 44.6468 104.329 45.9047 104.329 47.7687C104.329 49.715 105.248 50.8993 106.771 50.8993Z" fill="white"></path>
  <path fill-rule="evenodd" clip-rule="evenodd" d="M207.649 38.6649L203.023 38.6776V37.6753C204.227 37.6317 206.125 37.7952 206.255 36.1976C206.324 35.3463 206.282 32.6509 206.282 31.7397V18.9863C206.282 18.1615 206.32 17.2393 206.275 16.4262H202.523C201.262 16.445 200.637 17.0396 200.154 17.5186C199.653 18.0151 199.421 19.1441 199.264 19.8057C199.162 20.4164 199.124 20.3739 199.072 21.0562C199.071 21.0743 199.07 21.1155 199.068 21.135L199.016 21.1346H198.068C198.068 20.742 198.068 20.3497 198.068 19.9564C198.068 18.5588 197.951 16.4503 197.846 15.186L207.649 15.1743L212.672 15.177L217.455 15.186C217.348 16.4503 217.232 18.5585 217.232 19.9564C217.232 20.3497 217.232 20.742 217.232 21.1346H216.282L216.232 21.135C216.051 20.0593 215.939 18.3066 215.146 17.519C214.663 17.0396 214.039 16.4453 212.775 16.4265H209.024C208.979 17.2396 209.016 18.1618 209.016 18.9866V31.7401C209.016 32.6513 208.975 35.3467 209.045 36.1979C209.173 37.7955 211.073 37.632 212.276 37.6756V38.6779L207.649 38.6652L207.649 38.6649Z" fill="white"></path>
  <path d="M57.5555 37.0297C58.3258 37.1024 59.4521 37.3493 60.2224 37.3493C62.9835 37.3493 66.3367 36.8271 66.3367 32.2346C66.3367 26.6695 61.4904 26.8324 57.5558 26.905V37.0297H57.5555ZM60.0941 25.5969C63.9786 25.5969 65.1987 24.1507 65.1987 20.86C65.1987 18.0396 63.7541 16.3401 59.8374 16.3401C59.2277 16.3401 58.1587 16.3763 57.5167 16.4487V25.5969H60.0944H60.0941ZM64.0457 25.8407C66.7745 26.3466 69.4343 27.6906 69.4043 32.2868C69.374 35.9725 66.5149 38.687 61.7315 38.687C61.7315 38.687 58.0831 38.4917 54.839 38.5389C53.7423 38.555 52.6805 38.6404 51.8438 38.6445V37.5326C54.4439 37.5326 54.9576 37.0957 54.9576 34.0948V19.3056C54.9576 16.4128 54.4439 16.1713 51.8438 16.1713V15.2032C55.4634 15.3619 59.1293 15.0601 60.2003 14.9606C60.5494 14.9281 60.8371 14.9298 61.1908 14.9405C66.397 15.1003 68.377 17.1371 68.377 20.5715C68.377 23.7895 66.7107 24.9007 64.046 25.6964V25.8411L64.0457 25.8407Z" fill="white"></path>
  <path d="M76.1093 26.3996L77.3294 26.4358C80.8608 26.2552 83.3255 25.5661 83.4163 21.0269C83.4769 17.83 81.6953 16.3751 78.228 16.3751C77.5219 16.3751 76.7835 16.4113 76.1093 16.4833V26.3996ZM82.0112 26.9979C82.3457 26.9095 86.5543 35.1914 86.8959 35.7387C87.9232 37.3256 89.2264 37.6248 90.7032 37.6248V38.6603H85.2547C81.7555 32.7103 81.2643 31.1593 79.9485 28.9962C79.3061 27.9142 78.9531 27.8059 77.7974 27.8059H76.1096V34.1884C76.1096 38.0385 76.5268 37.5782 79.2879 37.5782V38.6603H70.2666V37.5782C72.6746 37.5782 73.3365 37.2174 73.3365 34.1884V18.7191C73.3365 16.7359 72.9974 16.2277 70.4291 16.2277L70.4311 15.1805C73.9537 15.3084 78.0635 14.5932 81.436 15.2388C84.473 15.82 86.4468 17.428 86.4468 20.8828C86.4468 24.9213 84.3948 25.9507 82.0115 26.9983L82.0112 26.9979Z" fill="white"></path>
  <path d="M95.0551 19.8999C95.0551 16.4889 94.9369 16.23 92.126 16.23V15.1831H100.647V16.231C97.8361 16.231 97.6866 16.7385 97.7475 19.8999V33.9793C97.7475 37.0522 98.0136 37.5879 100.647 37.5879V38.6599H92.126V37.5879C94.789 37.5879 95.0551 37.0522 95.0551 33.9793V19.8999Z" fill="white"></path>
  <path d="M159.501 19.0516H159.404L155.721 28.3709H162.562L159.501 19.0516ZM163.09 29.9538H158.862L155.037 29.9575L153.164 34.6545C152.971 35.227 152.811 35.7641 152.811 36.4083C152.811 37.4099 153.817 37.5781 155.326 37.5781V38.638L147.806 38.637V37.5633C149.71 37.5633 150.584 37.0843 152.125 33.005L159.69 14.6577L161.116 14.6597L167.667 34.3782C168.598 36.7402 169.104 37.5633 171.277 37.5633V38.637H162.642V37.5633C163.605 37.5633 165.033 37.5962 165.033 36.3439C165.033 35.8424 164.728 35.0941 164.311 34.0204L163.09 29.9542L163.09 29.9538Z" fill="white"></path>
  <path d="M196.321 16.229C195.166 16.229 194.716 16.1503 194.234 16.6582C193.721 17.1664 193.48 18.168 193.48 20.78V38.8003H192.421L176.856 20.0732H176.696L176.784 33.2604C176.784 36.8885 177.534 37.5776 179.942 37.5776V38.6663H172.193V37.5776C174.73 37.5776 175.211 36.9247 175.211 33.2604L175.129 19.1579C175.116 17.0605 173.939 16.2582 171.756 16.2582V15.1698H176.773L191.806 33.6005H191.966L191.875 20.5988C191.875 18.4219 191.665 17.4565 191.184 16.8401C190.67 16.1506 190.093 16.229 188.744 16.229V15.1406H196.32V16.229H196.321Z" fill="white"></path>
  <path d="M118.087 38.6713H102.485V37.5732C105.018 37.5732 105.432 37.1929 105.432 34.2965L105.433 19.8604C105.494 16.1054 104.876 16.238 102.504 16.2357V15.1831L111.025 15.1838V16.2273C109.951 16.2504 109.307 16.295 108.872 16.5489C108.145 16.9727 108.129 17.7164 108.12 19.8533V35.0982C108.12 36.7323 108.658 37.2693 110.527 37.2693L112.143 37.3135C116.387 37.3135 116.951 36.1819 117.962 32.6999H118.975L118.087 38.6703L118.087 38.6713Z" fill="white"></path>
  <path d="M136.001 38.6713H120.4V37.5732C122.933 37.5732 123.347 37.1929 123.347 34.2965L123.348 19.8604C123.409 16.1054 122.791 16.238 120.419 16.2357V15.1831L128.94 15.1838V16.2273C127.866 16.2504 127.221 16.295 126.787 16.5489C126.06 16.9727 126.044 17.7164 126.034 19.8533V35.0982C126.034 36.7323 126.573 37.2693 128.441 37.2693L130.058 37.3135C134.301 37.3135 134.866 36.1819 135.876 32.6999H136.889L136.001 38.6703V38.6713Z" fill="white"></path>
  <path d="M141.283 19.8999C141.283 16.4889 141.164 16.23 138.354 16.23V15.1831H146.875V16.231C144.064 16.231 143.914 16.7385 143.975 19.8999V33.9793C143.975 37.0522 144.241 37.5879 146.875 37.5879V38.6599H138.354V37.5879C141.017 37.5879 141.283 37.0522 141.283 33.9793V19.8999Z" fill="white"></path>
  <path d="M67.5238 51.1764V50.8749H67.6169C68.0241 50.8749 68.4335 50.8548 68.1094 50.359L66.7343 48.15H66.7157L65.5891 49.9285C65.4682 50.1054 65.2816 50.3865 65.2816 50.5834C65.2816 50.7603 65.3842 50.8749 65.8776 50.8749V51.1764H63.8201V50.8749C64.3136 50.8544 64.4719 50.7081 64.9187 50.0535L66.4734 47.7657L64.5683 44.9863C64.3565 44.6774 64.0852 44.6566 63.6328 44.6566V44.3447H66.1701V44.6566H66.0679C65.8376 44.6566 65.6734 44.6938 65.59 44.7839C65.463 44.9213 65.564 45.012 65.6451 45.1296L66.9528 47.0281H66.9714L68.0283 45.5407C68.3293 44.9936 68.514 44.6566 67.7303 44.6566V44.3447H69.8715V44.6566C69.2755 44.6774 69.0895 44.8228 68.5775 45.5822L67.2834 47.4639L68.9872 50.2511C69.2944 50.7499 69.6725 50.8648 70.2148 50.8672V51.1687L67.5235 51.1764H67.5238Z" fill="white"></path>
  <path d="M96.0586 49.1177L95.8052 50.7187C95.7996 50.7528 95.7847 50.8242 95.7501 50.8671C95.714 50.9123 95.6573 50.929 95.6179 50.9455C94.3932 51.4587 91.9077 51.5274 90.7703 50.0085C90.3247 49.4135 90.07 48.648 90.0342 47.7787C90.0342 46.0896 91.3107 44.4505 93.1047 44.2525C93.9678 44.157 94.8883 44.3399 95.8456 44.4223L95.7459 46.1432L95.4691 46.1533C95.3564 45.3938 95.1069 45.0247 94.76 44.8458C94.0046 44.4565 92.4585 44.6572 91.8263 45.2789C91.3064 45.7895 91.0159 46.6079 91.0159 47.6591C91.0159 49.7391 92.1438 50.8463 93.5786 50.8463C94.8684 50.8698 95.4713 49.842 95.7798 49.1207L96.0586 49.1184V49.1177Z" fill="white"></path>
  <path d="M117.385 44.6555C116.547 44.6555 116.394 44.8638 116.394 45.9352V48.443C116.394 50.3371 115.709 51.3046 113.867 51.3046C112.142 51.3046 111.382 50.514 111.382 48.5783V45.5714C111.382 44.8427 111.196 44.6555 110.427 44.6555V44.3436H113.233V44.6555C112.405 44.6555 112.278 44.8427 112.278 45.6233V48.5679C112.278 49.9203 112.717 50.6493 114.111 50.6493C115.387 50.6493 115.913 50.0456 115.913 48.6095V45.9874C115.913 45.3288 115.928 44.9801 115.721 44.8069C115.584 44.693 115.277 44.6551 114.952 44.6551V44.3433H117.385V44.6551V44.6555Z" fill="white"></path>
  <path d="M148.593 48.4325C148.023 48.4325 147.901 48.5779 147.901 49.2227V50.8408C145.207 52.0903 142.055 50.9289 142.055 47.7993C142.055 45.4905 143.536 44.2329 145.449 44.2329C146.344 44.2329 147.258 44.3435 147.976 44.5642V46.2506H147.646C147.442 44.7173 146.553 44.6795 145.459 44.6795C144.024 44.6795 143.005 45.8335 143.005 47.6744C143.005 49.7956 144.075 50.8351 145.53 50.8351C146.161 50.8351 146.745 50.809 147.152 50.4971V49.5082C147.152 48.7594 147.315 48.401 145.957 48.4325V48.0998H148.594V48.4325H148.593Z" fill="white"></path>
  <path d="M155.96 46.126C155.83 45.1937 155.477 44.7227 154.681 44.6564C154.341 44.6564 154.032 44.7046 153.794 44.8282C153.499 45.0162 153.338 45.325 153.357 45.6259C153.357 46.3669 153.875 46.7525 154.477 47.0764C154.892 47.3002 155.348 47.4945 155.7 47.7565C156.217 48.1417 156.589 48.6251 156.589 49.4529C156.622 50.4057 155.647 51.147 154.724 51.274C153.676 51.418 152.655 51.0649 152.65 51.0311L152.342 49.1474H152.657C153.013 50.5825 153.975 50.8405 154.381 50.8566C155.48 50.8566 155.998 49.9209 155.718 49.1541C155.565 48.7317 155.18 48.5307 154.492 48.1648C154.002 47.9039 153.482 47.6412 153.106 47.3361C151.887 46.3455 152.598 44.2229 154.462 44.2329C155.122 44.2329 155.726 44.4276 156.299 44.4276V46.1267H155.96L155.96 46.126Z" fill="white"></path>
  <path d="M161.595 51.1726H157.093V50.8611C157.776 50.8611 157.911 50.7566 157.911 49.9459V45.61C157.911 44.8197 157.776 44.6532 157.093 44.6532V44.3413H161.519L161.55 45.9637H161.258C161.131 44.9245 160.963 44.6988 159.926 44.6988H158.687V47.3633H160.688L161.016 47.3627V47.8558H160.693H160.688H160.557H158.686V50.7154H159.774C161.08 50.7257 161.386 50.6262 161.714 49.3891H161.985L161.595 51.1733L161.595 51.1726Z" fill="white"></path>
  <path d="M172.505 45.5041C172.566 45.3483 172.617 45.1822 172.617 44.9952C172.617 44.7148 172.357 44.6579 171.879 44.6579V44.3467H174.1V44.6579C173.461 44.6579 173.313 44.8264 172.825 45.9992L170.825 51.172H170.419L168.364 45.5912C168.069 44.8957 168.118 44.6462 167.253 44.6582V44.347H169.823V44.6582C169.434 44.6455 169.142 44.5584 169.131 45.0529L169.145 45.1865C169.157 45.3115 169.217 45.4719 169.304 45.686L170.782 49.9646H170.833L171.251 48.8206L172.505 45.5048L172.505 45.5041Z" fill="white"></path>
  <path fill-rule="evenodd" clip-rule="evenodd" d="M54.6698 51.1728L53.3272 51.1765V50.885C53.6767 50.8726 54.2275 50.9199 54.2653 50.4552C54.2852 50.2076 54.2731 49.4237 54.2731 49.1588V45.45C54.2731 45.2101 54.2838 44.9418 54.2711 44.7056H53.182C52.8162 44.7113 52.6348 44.8842 52.4944 45.0235C52.3491 45.1679 52.2817 45.4962 52.2361 45.6885C52.2068 45.866 52.1954 45.8536 52.1807 46.0523C52.1801 46.0577 52.1797 46.0694 52.1794 46.0751H52.1641H51.8892C51.8892 45.9609 51.8892 45.847 51.8892 45.7324C51.8892 45.326 51.8553 44.7126 51.8247 44.3451L54.6698 44.3418L56.1277 44.3425L57.5162 44.3451C57.485 44.7126 57.4514 45.326 57.4514 45.7324C57.4514 45.8466 57.4514 45.9609 57.4514 46.0751H57.1755H57.1612C57.1088 45.7622 57.0762 45.2527 56.8459 45.0235C56.7055 44.8842 56.5248 44.7113 56.1577 44.7056H55.0691C55.0558 44.9421 55.0669 45.2101 55.0669 45.45V49.1588C55.0669 49.4237 55.0548 50.2076 55.0753 50.4552C55.1125 50.9199 55.6639 50.8723 56.0131 50.885V51.1765L54.6701 51.1728H54.6698Z" fill="white"></path>
  <path d="M60.0014 45.5324H59.9737L58.9122 48.2178H60.8834L60.0014 45.5324ZM61.0355 48.674H59.8173L58.7151 48.675L58.1754 50.0284C58.12 50.1936 58.0738 50.348 58.0738 50.5336C58.0738 50.8224 58.3637 50.8706 58.7985 50.8706V51.1758L56.6318 51.1755V50.8663C57.1803 50.8663 57.4324 50.7283 57.8764 49.5527L60.0561 44.2661L60.4668 44.2668L62.3543 49.9484C62.6227 50.6291 62.7683 50.8663 63.3946 50.8663V51.1755H60.9065V50.8663C61.184 50.8663 61.5954 50.8757 61.5954 50.5149C61.5954 50.3705 61.5075 50.1544 61.3873 49.8452L61.0355 48.6734V48.674Z" fill="white"></path>
  <path d="M86.7815 45.5324H86.7538L85.6923 48.2178H87.6635L86.7815 45.5324ZM87.8156 48.674H86.5974L85.4952 48.675L84.9555 50.0284C84.8998 50.1936 84.8536 50.348 84.8536 50.5336C84.8536 50.8224 85.1434 50.8706 85.5783 50.8706V51.1758L83.4116 51.1755V50.8663C83.9604 50.8663 84.2122 50.7283 84.6562 49.5527L86.8359 44.2661L87.2466 44.2668L89.1341 49.9484C89.4025 50.6291 89.5481 50.8663 90.1744 50.8663V51.1755H87.6863V50.8663C87.9638 50.8663 88.3752 50.8757 88.3752 50.5149C88.3752 50.3705 88.2872 50.1544 88.1671 49.8452L87.8153 48.6734L87.8156 48.674Z" fill="white"></path>
  <path d="M102.765 49.1177L102.512 50.7187C102.507 50.7528 102.492 50.8242 102.458 50.8671C102.421 50.9123 102.365 50.929 102.326 50.9455C101.107 51.4587 98.6325 51.5274 97.4999 50.0085C97.0563 49.4135 96.8029 48.648 96.7671 47.7787C96.7671 46.0896 98.038 44.4505 99.8239 44.2525C100.683 44.157 101.599 44.3399 102.552 44.4223L102.453 46.1432L102.178 46.1533C102.065 45.3938 101.817 45.0247 101.471 44.8458C100.72 44.4565 99.1803 44.6572 98.5507 45.2789C98.0335 45.7895 97.7439 46.6079 97.7439 47.6591C97.7439 49.7391 98.8666 50.8463 100.295 50.8463C101.579 50.8698 102.179 49.842 102.487 49.1207L102.764 49.1184L102.765 49.1177Z" fill="white"></path>
  <path d="M124.995 44.6554C124.661 44.6554 124.531 44.6327 124.392 44.7801C124.244 44.9275 124.174 45.2179 124.174 45.976V51.2047H123.868L119.367 45.7707H119.321L119.347 49.597C119.347 50.6496 119.563 50.8496 120.26 50.8496V51.1655H118.019V50.8496C118.752 50.8496 118.892 50.66 118.892 49.597L118.868 45.505C118.864 44.8963 118.524 44.6635 117.893 44.6635V44.3476H119.343L123.69 49.6952H123.737L123.71 45.9227C123.71 45.2913 123.65 45.0109 123.51 44.832C123.362 44.632 123.195 44.6548 122.805 44.6548V44.3389H124.996V44.6548L124.995 44.6554Z" fill="white"></path>
  <path fill-rule="evenodd" clip-rule="evenodd" d="M128.403 51.1717L127.06 51.1754V50.884C127.41 50.8716 127.961 50.9188 127.998 50.4545C128.018 50.2069 128.006 49.4237 128.006 49.1587V45.4516C128.006 45.2117 128.017 44.9437 128.004 44.7076H126.915C126.549 44.7133 126.368 44.8858 126.227 45.0251C126.082 45.1695 126.015 45.4975 125.969 45.6898C125.94 45.8673 125.929 45.8549 125.914 46.0533C125.913 46.0586 125.913 46.0703 125.912 46.076H125.897H125.622C125.622 45.9618 125.622 45.8479 125.622 45.7337C125.622 45.3273 125.588 44.7146 125.558 44.3471L128.403 44.3438L129.861 44.3444L131.249 44.3471C131.218 44.7146 131.184 45.3273 131.184 45.7337C131.184 45.8479 131.184 45.9621 131.184 46.076H130.908H130.894C130.842 45.7635 130.809 45.2539 130.579 45.0248C130.439 44.8854 130.258 44.7129 129.891 44.7072H128.802C128.789 44.9437 128.8 45.2117 128.8 45.4513V49.1584C128.8 49.4234 128.788 50.2066 128.808 50.4542C128.845 50.9185 129.397 50.8709 129.746 50.8836V51.1751L128.403 51.1714L128.403 51.1717Z" fill="white"></path>
  <path d="M132.648 45.713C132.648 44.7207 132.614 44.6453 131.812 44.6453V44.3408H134.244V44.6457C133.442 44.6457 133.4 44.7934 133.417 45.713V49.8094C133.417 50.7035 133.493 50.8592 134.244 50.8592V51.1711H131.812V50.8592C132.572 50.8592 132.648 50.7035 132.648 49.8094V45.713Z" fill="white"></path>
  <path d="M141.925 44.6577C141.591 44.6577 141.461 44.6349 141.322 44.7823C141.173 44.9297 141.104 45.2202 141.104 45.9779V51.2053H140.797L136.297 45.7729H136.25L136.276 49.5983C136.276 50.6509 136.492 50.8505 137.189 50.8505V51.1664H134.948V50.8505C135.682 50.8505 135.821 50.6612 135.821 49.5983L135.797 45.5076C135.793 44.8992 135.453 44.6664 134.822 44.6664V44.3505H136.273L140.619 49.6968H140.666L140.639 45.925C140.639 45.2935 140.579 45.0138 140.439 44.8349C140.291 44.6349 140.124 44.6577 139.734 44.6577V44.3418H141.925V44.6577H141.925Z" fill="white"></path>
  <path d="M164.052 47.6174L164.408 47.6278C165.439 47.5755 166.158 47.3759 166.185 46.0603C166.202 45.134 165.682 44.7123 164.67 44.7123C164.464 44.7123 164.249 44.7227 164.052 44.7438V47.6174H164.052ZM165.775 47.7909C165.873 47.7651 167.101 50.1651 167.2 50.3239C167.5 50.7838 167.881 50.8702 168.311 50.8702V51.1704H166.721C165.7 49.4462 165.557 48.9966 165.173 48.3698C164.985 48.0562 164.882 48.0248 164.545 48.0248H164.052V49.8743C164.052 50.9902 164.174 50.8565 164.979 50.8565V51.1701H162.347V50.8565C163.049 50.8565 163.243 50.752 163.243 49.8743V45.3917C163.243 44.8168 163.144 44.6697 162.394 44.6697L162.395 44.3662C163.423 44.4034 164.622 44.196 165.607 44.383C166.493 44.5511 167.069 45.0171 167.069 46.0184C167.069 47.1886 166.47 47.4871 165.775 47.7906V47.7909Z" fill="white"></path>
  <path d="M175.577 45.7146C175.577 44.7227 175.543 44.6473 174.741 44.6473V44.3428H177.173V44.6476C176.371 44.6476 176.328 44.7954 176.346 45.7146V49.8096C176.346 50.7034 176.421 50.8592 177.173 50.8592V51.1711H174.741V50.8592C175.501 50.8592 175.577 50.7034 175.577 49.8096V45.7146Z" fill="white"></path>
  <path d="M183.52 49.1177L183.268 50.7187C183.262 50.7528 183.247 50.8242 183.213 50.8671C183.177 50.9123 183.12 50.929 183.081 50.9455C181.862 51.4587 179.387 51.5274 178.255 50.0085C177.811 49.4135 177.558 48.648 177.522 47.7787C177.522 46.0896 178.793 44.4505 180.579 44.2525C181.438 44.157 182.355 44.3399 183.307 44.4223L183.208 46.1432L182.932 46.1533C182.82 45.3938 182.572 45.0247 182.227 44.8458C181.475 44.4565 179.935 44.6572 179.306 45.2789C178.789 45.7895 178.499 46.6079 178.499 47.6591C178.499 49.7391 179.622 50.8463 181.05 50.8463C182.335 50.8698 182.935 49.842 183.242 49.1207L183.519 49.1184L183.52 49.1177Z" fill="white"></path>
  <path d="M188.794 51.1743H184.292V50.8628C184.975 50.8628 185.11 50.7582 185.11 49.9472V45.6103C185.11 44.8197 184.975 44.6532 184.292 44.6532V44.3413H188.718L188.749 45.9641H188.457C188.331 44.9242 188.162 44.6988 187.125 44.6988H185.886V47.364H187.887L188.216 47.3633V47.8568H187.892H187.887H187.756H185.885V50.7174H186.973C188.279 50.7277 188.585 50.6279 188.914 49.3904H189.184L188.794 51.175V51.1743Z" fill="white"></path>
  <path d="M193.5 46.126C193.37 45.1937 193.017 44.7227 192.221 44.6564C191.881 44.6564 191.572 44.7046 191.334 44.8282C191.039 45.0162 190.878 45.325 190.897 45.6259C190.897 46.3669 191.415 46.7525 192.017 47.0764C192.433 47.3002 192.888 47.4945 193.24 47.7565C193.758 48.1417 194.129 48.6251 194.129 49.4529C194.162 50.4057 193.187 51.147 192.264 51.274C191.216 51.418 190.195 51.0649 190.19 51.0311L189.882 49.1474H190.197C190.553 50.5825 191.515 50.8405 191.921 50.8566C193.02 50.8566 193.538 49.9209 193.259 49.1541C193.105 48.7317 192.72 48.5307 192.032 48.1648C191.542 47.9039 191.022 47.6412 190.646 47.3361C189.427 46.3455 190.139 44.2229 192.002 44.2329C192.662 44.2329 193.266 44.4276 193.839 44.4276V46.1267H193.5L193.5 46.126Z" fill="white"></path>
  <path d="M200.361 45.7144C200.361 44.7222 200.328 44.6468 199.525 44.6468V44.3423H201.958V44.6471C201.155 44.6471 201.113 44.7949 201.13 45.7144V49.8098C201.13 50.7036 201.206 50.8594 201.958 50.8594V51.1713H199.525V50.8594C200.286 50.8594 200.361 50.7036 200.361 49.8098V45.7144Z" fill="white"></path>
  <path d="M209.567 44.6548C209.233 44.6548 209.103 44.632 208.964 44.7794C208.815 44.9268 208.746 45.2176 208.746 45.9753V51.2047H208.44L203.939 45.7703H203.893L203.918 49.597C203.918 50.6499 204.135 50.8496 204.831 50.8496V51.1655H202.591V50.8496C203.324 50.8496 203.463 50.6603 203.463 49.597L203.44 45.5047C203.436 44.896 203.096 44.6631 202.464 44.6631V44.3472H203.915L208.262 49.6955H208.308L208.282 45.9227C208.282 45.2909 208.221 45.0109 208.082 44.832C207.933 44.632 207.766 44.6548 207.377 44.6548V44.3389H209.568V44.6548H209.567Z" fill="white"></path>
  <path d="M215.397 49.1177L215.145 50.7187C215.139 50.7528 215.124 50.8242 215.089 50.8671C215.053 50.9123 214.997 50.929 214.958 50.9455C213.739 51.4587 211.264 51.5274 210.132 50.0085C209.688 49.4135 209.435 48.648 209.399 47.7787C209.399 46.0896 210.67 44.4505 212.456 44.2525C213.315 44.157 214.232 44.3399 215.184 44.4223L215.085 46.1432L214.809 46.1533C214.697 45.3938 214.449 45.0247 214.103 44.8458C213.351 44.4565 211.812 44.6572 211.183 45.2789C210.665 45.7895 210.376 46.6079 210.376 47.6591C210.376 49.7391 211.498 50.8463 212.927 50.8463C214.211 50.8698 214.811 49.842 215.118 49.1207L215.396 49.1184L215.397 49.1177Z" fill="white"></path>
  <path d="M75.4035 47.7704C74.6465 48.2568 74.0674 49.3674 74.7133 50.1439C75.1631 50.6849 76.1223 50.8069 76.6125 50.301L77.378 49.5111L75.4038 47.7701L75.4035 47.7704ZM78.9899 50.2702C79.4166 50.7653 79.698 50.8625 80.1325 50.8662V51.1757H78.7743L78.603 50.9754L77.6464 49.8555C77.2018 50.3077 76.8663 50.7623 76.4481 51.028C75.5888 51.5733 74.2387 51.0929 73.8212 50.17C73.6196 49.7241 73.6209 49.164 73.9625 48.5396C74.1488 48.1996 74.4641 47.8719 74.9915 47.5322C75.0843 47.4726 75.0791 47.4726 75.0006 47.3761C74.0238 46.1751 74.3619 44.541 76.0318 44.541C76.7194 44.541 77.4721 45.0737 77.4721 45.8499C77.4721 46.5205 77.2268 46.8947 76.1722 47.3741L77.8467 48.9322C78.3835 48.08 78.4636 48.0532 78.5115 47.8009C78.5115 47.5229 78.3701 47.4083 77.9275 47.4083V47.1111H79.9996V47.4083C79.6554 47.4083 79.2981 47.4334 79.1502 47.6485L78.1066 49.1677L78.9896 50.2709L78.9899 50.2702ZM75.1615 46.0763C75.2364 46.4214 75.5168 46.9788 75.8794 47.0284C76.1478 47.0649 76.6523 46.5229 76.7145 46.1936C77.0236 44.5561 74.8429 44.611 75.1615 46.0763Z" fill="white"></path>
  <path d="M216.686 51.2614C217.026 51.2614 217.302 50.9783 217.302 50.6292C217.302 50.2801 217.026 49.9971 216.686 49.9971C216.346 49.9971 216.07 50.2801 216.07 50.6292C216.07 50.9783 216.346 51.2614 216.686 51.2614Z" fill="white"></path>
  <path fill-rule="evenodd" clip-rule="evenodd" d="M195.888 50.0914C196.156 50.342 196.253 50.6086 196.253 50.9748C196.253 51.6374 195.717 52.1928 194.996 52.3426C195.006 52.2813 195.01 52.2186 195.01 52.1553C195.01 52.1285 195.01 52.1024 195.008 52.0763C195.876 51.629 195.78 50.82 195.165 50.609C194.964 50.5403 194.934 50.4056 194.982 50.1976C195.056 49.87 195.552 49.7778 195.888 50.0917L195.888 50.0914Z" fill="white"></path>
  <defs>
    <radialGradient id="paint0_radial_14220_14053" cx="0" cy="0" r="1" gradientUnits="userSpaceOnUse" gradientTransform="translate(28.1134 34.2457) scale(23.2979 25.0462)">
      <stop stop-color="#9D272D"></stop>
      <stop offset="0.670588" stop-color="#9D272D"></stop>
      <stop offset="1" stop-color="#5E0000"></stop>
    </radialGradient>
  </defs>
</svg>
